<svg xmlns="http://www.w3.org/2000/svg" viewBox="0 0 40 40" width="40" height="40">
  <defs>
    <linearGradient id="w" x1="6" y1="30" x2="36" y2="6" gradientUnits="userSpaceOnUse">
      <stop offset="0" stop-color="#2b8b88" />
      <stop offset="0.55" stop-color="#54d0cc" />
      <stop offset="1" stop-color="#9bece8" />
    </linearGradient>
  </defs>
  <rect width="40" height="40" rx="9" fill="#04070c" />
  <path
    d="M8.5 28.2C6.6 19 11 9.5 21 9 28 8.7 32.2 12.6 34 17.4 35.2 14.8 37 12.3 39.2 10.2 38.4 14 37.2 16.6 35.4 18.8 36.7 20.7 37.6 22.9 38.4 25.8 35.6 24.2 33 21.9 31.2 20 28.6 24.2 23.4 26.6 17.6 25.9 13.2 25.4 9.4 25.8 8.5 28.2Z"
    fill="url(#w)" />
  <path d="M12.3 25C13.2 28.2 16 29.6 18.7 28.2 16.3 28 13.6 26.8 12.3 25Z" fill="#248481" />
  <circle cx="12.6" cy="21.7" r="1.2" fill="#04070c" />
  <g fill="#e2a24d">
    <rect x="15.2" y="4.6" width="1.9" height="4.6" rx="0.95" />
    <rect x="18.05" y="1.9" width="1.9" height="7.3" rx="0.95" />
    <rect x="20.9" y="3.9" width="1.9" height="5.3" rx="0.95" />
  </g>
</svg>
